<?xml version="1.0" encoding="UTF-8" standalone="no"?>
<!-- Created with Inkscape (http://www.inkscape.org/) -->

<svg
   version="1.1"
   id="svg2"
   xml:space="preserve"
   width="1435.3467"
   height="1285.8267"
   viewBox="0 0 1435.3467 1285.8267"
   sodipodi:docname="fish.svg"
   inkscape:version="1.1 (c4e8f9ed74, 2021-05-24)"
   xmlns:inkscape="http://www.inkscape.org/namespaces/inkscape"
   xmlns:sodipodi="http://sodipodi.sourceforge.net/DTD/sodipodi-0.dtd"
   xmlns="http://www.w3.org/2000/svg"
   xmlns:svg="http://www.w3.org/2000/svg"><defs
     id="defs6" /><sodipodi:namedview
     id="namedview4"
     pagecolor="#ffffff"
     bordercolor="#666666"
     borderopacity="1.0"
     inkscape:pageshadow="2"
     inkscape:pageopacity="0.0"
     inkscape:pagecheckerboard="0"
     showgrid="false"
     inkscape:zoom="0.58561548"
     inkscape:cx="506.30492"
     inkscape:cy="709.50993"
     inkscape:window-width="1920"
     inkscape:window-height="1056"
     inkscape:window-x="1920"
     inkscape:window-y="0"
     inkscape:window-maximized="1"
     inkscape:current-layer="g10" /><g
     id="g8"
     inkscape:groupmode="layer"
     inkscape:label="ink_ext_XXXXXX"
     transform="matrix(1.3333333,0,0,-1.3333333,0,1285.8267)"><g
       id="g10"
       transform="scale(0.1)"><path
         d="m 1165.75,1043.09 c -20.67,-14.2 -41.43,-32.86 -62.78,-56.879 -93.27,-104.871 -79.27,-268.301 13.94,-369.242 84.76,-91.809 218.91,-127.52 342.99,-112.75 124.07,14.793 238.94,74.672 339.18,149.25 93.59,69.64 198.51,149.972 272.88,239.972 -209.45,54.141 -418.91,108.259 -628.34,162.439 -113.68,29.41 -195.16,44.02 -277.87,-12.79"
         style="fill:#366dbb;fill-opacity:1;fill-rule:nonzero;stroke:none"
         id="path12" /><path
         d="m 1831.11,2176.1 c -97.47,230.52 -468.37,406.32 -689.1,398.81 -82.31,-2.81 -166.01,-34.49 -219.522,-97.09 -79.574,-93.1 -77.402,-230.37 -54.449,-350.68 10.215,-53.51 24.25,-107.7 55.156,-152.58 26.996,-39.18 65.563,-69.17 106.735,-93.04 204.28,-118.44 891.72,-146.97 820.49,231.37 -4.04,21.45 -10.58,42.55 -19.31,63.21"
         style="fill:#366dbb;fill-opacity:1;fill-rule:nonzero;stroke:none"
         id="path14" /><path
         d="m 3268.27,1215.12 c -17.31,-20.28 -35.74,-40.16 -54.8,-59.62 -81.95,-83.8 -177.01,-160.121 -264.81,-232.949 -5.73,-4.699 -11.47,-9.52 -17.3,-14.238 -169.34,-137.782 -358.13,-254.153 -568.03,-308.344 -41.08,-10.547 -82.88,-18.84 -125.39,-25 -48.56,-7.059 -97.93,-11.258 -147.72,-12.688 -178.34,-5.543 -362.53,23.051 -536.98,77.848 -59.42,18.551 -117.5,40.25 -173.95,64.641 -106.43,45.89 -206.62,101.421 -296.35,164.621 -44.05,31.031 -86.053,69.449 -127.131,110.839 -48.145,48.35 -95.168,100.69 -143.207,149.97 -64.129,65.76 -130.098,125.9 -202.832,163.18 -53.676,27.56 -103.157,28.27 -150.282,16.91 -47.629,-11.58 -92.804,-35.44 -137.468,-56.65 -61.258,-29.1 -121.598,-53.07 -185.723,-32.47 -24.692,7.98 -45.8947,24.48 -63.2072,43.74 -77.85152,86.86 -76.52339,216.66 -70.68355,333.13 10.34375,208.77 63.51565,317.46 269.20675,223.12 35.657,-16.4 73.555,-26.23 112.379,-30.84 40.258,-4.61 81.442,-3.48 121.903,2.36 17.824,2.56 35.546,6.03 52.96,10.24 136.04,33.19 241.04,102.03 345.219,187.56 8.61,7.07 17.211,14.24 25.817,21.52 33.297,28.17 67.406,55.42 102.339,81.44 129.58,96.8 269.82,178.24 418.26,236.94 49.48,19.57 99.78,36.57 150.89,50.81 12.91,3.69 26.02,7.07 39.03,10.35 109.3,27.15 222.29,40.97 334.77,39.74 34.83,-0.31 69.66,-2.15 104.29,-5.43 120.46,-11.36 239.09,-40.67 350.65,-89.84 11.26,-5.02 22.43,-10.14 33.6,-15.57 177.52,-85.74 332.72,-221.47 444.38,-389.17 4.71,-6.96 9.32,-14.03 13.83,-21.1 74.47,-117.29 128.87,-246.67 185.51,-373.9 27.26,-61.16 51.43,-135.43 88.51,-190.64 17.93,-26.63 86.46,-54.7 91.28,-85.84 2.56,-16.6 -8.2,-32.07 -18.96,-44.67"
         style="fill:#54a8e1;fill-opacity:1;fill-rule:nonzero;stroke:none"
         id="path16" /><path
         d="m 2237.94,574.969 c -48.56,-7.059 -97.93,-11.258 -147.72,-12.688 -0.82,2.149 -1.64,4.301 -2.45,6.438 -18.24,48.051 -33.71,97.433 -48.87,146.39 -30.43,98.153 -58.8,196.993 -83.59,296.771 -49.07,197.51 -83.9,398.59 -94.24,602.04 -9.73,188.49 1.22,379.94 39.74,564.95 17.93,85.74 43.13,170.57 74.37,252.41 34.83,-0.31 69.66,-2.15 104.29,-5.43 -3.18,-9.32 -6.25,-18.64 -9.12,-27.97 -26.02,-84.71 -44.46,-171.27 -58.59,-258.75 -28.58,-176.2 -31.25,-356.49 -15.88,-534.13 16.9,-193.39 56.03,-385.37 105.82,-572.73 24.79,-93.118 52.55,-185.52 82.16,-277.211 13.82,-42.809 28.06,-85.43 41.38,-128.45 5.43,-17.507 9.42,-34.617 12.7,-51.64"
         style="fill:#90dbf0;fill-opacity:1;fill-rule:nonzero;stroke:none"
         id="path18" /><path
         d="m 1573.93,2229.17 c -61.88,-326.17 -118.32,-655.31 -111.35,-988.54 3.17,-153.25 22.84,-303.021 53.16,-453.091 10.04,-49.777 23.26,-98.758 37.5,-147.41 -59.42,18.551 -117.5,40.25 -173.95,64.641 -10.03,34.32 -18.84,68.839 -26.32,103.152 -73.35,334.878 -54.71,677.338 -2.77,1013.738 26.33,170.98 62.39,340 100.29,508.72 49.48,19.57 99.78,36.57 150.89,50.81 -9.53,-50.91 -18.03,-101.93 -27.45,-152.02"
         style="fill:#90dbf0;fill-opacity:1;fill-rule:nonzero;stroke:none"
         id="path20" /><path
         d="m 958.27,1325.55 c -3.997,-114.94 -4.61,-230.28 -2.461,-345.32 -48.145,48.35 -95.168,100.69 -143.207,149.97 0.714,68.43 3.171,136.85 7.168,205.18 9.324,161.66 26.121,322.9 51.527,482.91 9.219,57.97 20.281,115.34 32.777,172.19 8.61,7.07 17.211,14.24 25.817,21.52 33.297,28.17 67.406,55.42 102.339,81.44 -40.363,-253.75 -65.05,-512.4 -73.96,-767.89"
         style="fill:#90dbf0;fill-opacity:1;fill-rule:nonzero;stroke:none"
         id="path22" /><path
         d="m 505.895,1792.68 c -21.715,-145.88 -36.368,-292.77 -44.356,-439.27 -0.82,-14.33 -1.434,-28.78 -2.051,-43.12 -47.629,-11.58 -92.804,-35.44 -137.468,-56.65 1.429,36.47 3.48,72.94 5.937,109.4 9.731,144.34 28.582,286.63 56.035,427.28 40.258,-4.61 81.442,-3.48 121.903,2.36"
         style="fill:#90dbf0;fill-opacity:1;fill-rule:nonzero;stroke:none"
         id="path24" /><path
         d="m 9346.04,2496.61 c -124.8,255.39 -408.51,385.5 -673.01,489.65 -100,39.37 -218.78,76.41 -309.27,18.43 -95.15,-60.97 -107.2,-197.06 -80.62,-306.89 26.57,-109.84 81.27,-214.45 83.1,-327.43 2.13,-132.22 -68.36,-254.46 -89.29,-385.03 -6.5,-40.61 -7.73,-84.16 11,-120.78 26.94,-52.67 90.48,-78.64 149.6,-76.71 59.13,1.93 114.91,26.8 167.6,53.7 l 740.89,655.06"
         style="fill:#5e3b78;fill-opacity:1;fill-rule:nonzero;stroke:none"
         id="path26" /><path
         d="m 8209.41,1724.88 c -0.06,0.96 -213.89,95.08 -241.88,116.5 -90.5,69.24 -167.87,153.23 -262.36,219.14 -75.6,52.75 -177.47,100.63 -255.01,50.76 -67.11,-43.14 -77.1,-139.79 -53.88,-216.12 23.22,-76.33 71.18,-142.98 97.36,-218.34 63.41,-182.55 -8.57,-380.49 -60.85,-566.53 -15.14,-53.83 -28.74,-109.61 -22.16,-165.142 6.57,-55.519 37.35,-111.378 88.88,-133.066 54.72,-23.031 117.54,-3.352 171.59,21.199 235.72,107.051 349,326.649 567.57,454.269 0,0 -29.24,437.07 -29.26,437.33"
         style="fill:#5e3b78;fill-opacity:1;fill-rule:nonzero;stroke:none"
         id="path28" /><path
         d="m 8511.73,1206.19 c -143.29,-103.89 36.67,-282.17 68.54,-406.811 50.63,-197.988 -49.91,-459.59 31.43,-640.969 84.58,-188.6288 322.82,-168.8397 482.47,-139.8787 227.29,41.2109 384.57,153.7697 549.28,305.3397 120.33,110.719 214.54,219.098 279.85,373.801 38.06,90.148 79.1,328.638 -7.3,396.638 l -1404.27,111.88"
         style="fill:#5e3b78;fill-opacity:1;fill-rule:nonzero;stroke:none"
         id="path30" /><path
         d="m 10661.4,1645.96 c -0.1,-10.38 -1.5,-21.36 -4,-32.79 -8.6,-39.06 -26.6,-78.26 -50.1,-117.01 V 1496 c -70.5,-116.54 -190.9,-229.43 -260.1,-322.66 -145.1,-195.418 -234.3,-508.149 -438.84,-648.488 -179.49,-123.27 -325.18,-17.243 -480.53,99.3 -213.86,160.489 -439.85,303.59 -682.24,411.448 -119.65,53.09 -242.97,106.02 -358.24,171.16 -171,96.56 -374.03,79.33 -333.94,355.45 21.05,144.62 173.91,175.74 274.41,250.19 162.81,120.83 297.09,275.66 449.37,410.84 108.24,95.95 356.19,367.95 514.75,366.58 89.08,-0.62 230.54,-97.94 304.41,-142.64 117.46,-70.94 229.95,-144.47 341.26,-224.56 149.89,-107.7 281.69,-245 436.19,-347.98 98,-65.29 288.6,-97.62 287.6,-228.68"
         style="fill:#a67dc2;fill-opacity:1;fill-rule:nonzero;stroke:none"
         id="path32" /><path
         d="m 10275.9,1074.84 c -189.7,-187.34 -483.02,-186.27 -669.82,0.92 -133.85,134.24 -210.94,351.78 -246.18,537.9 -16.53,87.11 6.29,552.86 86.3,598.63 -26.62,-311.98 -144.38,-581.54 91.72,-860.87 187.23,-221.36 474.98,-259.35 737.98,-276.58"
         style="fill:#5e3b78;fill-opacity:1;fill-rule:nonzero;stroke:none"
         id="path34" /><path
         d="m 9395.07,1621.21 c -100.04,78.64 -186.87,186.67 -321.81,193.2 -168.12,8.14 -168.88,-126.93 -175.54,-264.39 -5.33,-110.06 -30.92,-301.96 107.27,-305.1 75.85,-1.73 125.4,63.38 177.74,113.89 81.26,78.42 170.58,144.37 251.34,221.72 l -39,40.68"
         style="fill:#d4b5e0;fill-opacity:1;fill-rule:nonzero;stroke:none"
         id="path36" /><path
         d="m 10661.4,1645.96 c -0.1,-10.38 -1.5,-21.36 -4,-32.79 -8.6,-39.06 -26.6,-78.26 -50.1,-117.01 V 1496 c -75.5,-13.27 -153.6,52.64 -157.6,156.83 62.8,-33.87 147.9,-39.97 211.7,-6.87"
         style="fill:#5e3b78;fill-opacity:1;fill-rule:nonzero;stroke:none"
         id="path38" /><path
         d="m 8640.87,1688.89 c -14.52,-37.51 -10.71,-80.98 -9.2,-120.77 1.79,-47.77 5.49,-94.38 21.8,-139.33 13.66,-37.6 66.8,-43 78.35,0 11.06,41.15 9.25,78.75 4.36,120.81 -5.37,46.26 -2.36,93.73 -10.68,139.29 -9.04,49.47 -70.2,37.33 -84.63,0 v 0"
         style="fill:#1d1b19;fill-opacity:1;fill-rule:nonzero;stroke:none"
         id="path40" /><path
         d="m 8426.49,1696.21 c -10.24,-69.82 -34.63,-149.19 -9.84,-218.05 13.18,-36.64 71.91,-46.26 80.64,0 12.71,67.42 3.75,141.07 -4.8,208.74 -4.47,35.19 -59.72,52.13 -66,9.31 v 0"
         style="fill:#1d1b19;fill-opacity:1;fill-rule:nonzero;stroke:none"
         id="path42" /><path
         d="m 8240.05,1558.01 c 10.02,-32.76 4.17,-75.39 25.31,-103.46 3.6,-4.78 12.87,-4.79 16.48,0 23.26,30.95 15.67,82.25 5.81,117.15 -8.99,31.83 -57.29,17.96 -47.6,-13.69 v 0"
         style="fill:#1d1b19;fill-opacity:1;fill-rule:nonzero;stroke:none"
         id="path44" /><path
         d="m 656.723,4963.45 c -64.055,68.5 -156.032,110.09 -249.774,112.94 -70.109,2.13 -149.062,-23.79 -177.746,-87.8 -24.746,-55.23 1.082,-127.74 55.168,-154.88 -63.383,-21.09 -119.496,-73.03 -130.773,-138.87 -11.282,-65.83 33.761,-140.5 100.062,-148.66 -53.906,-19.15 -94.058,-72.14 -97.922,-129.22 -3.859,-57.07 28.789,-114.99 79.621,-141.23 49.09,-25.35 109.473,-21.04 160.575,-0.04 51.105,20.99 94.496,56.99 135.105,94.44 83.574,77.08 159.789,163.54 214.852,263.01 l -89.168,330.31"
         style="fill:#1e6634;fill-opacity:1;fill-rule:nonzero;stroke:none"
         id="path46" /><path
         d="m 781.453,4975.92 c 225.687,13.7 451.377,27.39 677.057,41.08 287.85,17.47 682.82,-48.74 795.02,297 41.39,127.55 -71.39,644.18 -289.32,413.01 18.23,110.87 -69.59,227.82 -181.15,241.23 -111.56,13.4 -224.59,-79.41 -233.14,-191.44 -11.47,121.43 -113.43,236.1 -235.41,236.35 -121.97,0.26 -228.65,-141.94 -174.79,-251.37 -94.57,59.03 -150.954,196.5 -262.337,191.84 -61.77,-2.59 -111.949,-52.9 -140.016,-107.98 -71.449,-140.21 -36.605,-307.7 12.969,-449.02 49.926,-142.34 61.719,-269.15 31.117,-420.7"
         style="fill:#1e6634;fill-opacity:1;fill-rule:nonzero;stroke:none"
         id="path48" /><path
         d="m 2027.09,4104.97 c 26.86,-120.16 23.35,-260.59 9.39,-352.87 -15.78,-104.33 -56.99,-213.39 -146.32,-269.57 -89.33,-56.18 -233.06,-27.82 -263.82,73.12 -8.71,-99.5 -72.68,-202.76 -171.14,-219.56 -69.56,-11.87 -144.73,25.83 -176.82,88.68 -32.08,62.84 -18.53,145.84 31.88,195.21 -73.6,-34.53 -90.53,-143.6 -166.36,-172.91 -70.88,-27.4 -149.853,38.59 -165.459,112.96 -15.613,74.38 12.407,150.22 39.949,221.05 -44.148,-51.92 -91.296,-105.96 -155.452,-128.93 -64.153,-22.97 -149.708,-1.17 -172.934,62.89 -8.477,23.38 -7.75,49.03 -5.406,73.78 12.222,129.12 77.906,241.25 92.168,370.06 17.32,156.41 36.468,312.12 58.925,468.2 215.479,-63.2 430.969,-126.41 646.449,-189.62 127.32,-37.34 377.78,-62.78 465.49,-159.12 38.87,-42.68 64.12,-104.72 79.46,-173.37"
         style="fill:#1e6634;fill-opacity:1;fill-rule:nonzero;stroke:none"
         id="path50" /><path
         d="m 3135.05,4525.25 c -13.22,-59.21 -188.6,-58.7 -188.6,-36.48 -5.12,-46.71 25.31,-94.44 68.74,-111.25 26.12,-9.93 62.18,-16.07 66.08,-44.76 1.94,-14.75 -6.46,-28.58 -14.75,-40.46 -92.92,-134.71 -214.31,-242.47 -348.09,-333.44 -96.71,-65.77 -199.77,-122.72 -303.43,-174.56 -11.17,-5.53 -22.33,-11.06 -33.5,-16.59 -39.64,-19.46 -79.49,-38.21 -119.75,-56.24 -139.52,-62.49 -283.14,-115.35 -431.27,-150.08 -30.42,-7.07 -61.05,-13.42 -91.89,-18.85 -37.28,-6.34 -74.78,-11.36 -112.37,-14.33 -99.27,-8.21 -198.94,-3.28 -295.24,22.43 -117.59,31.35 -226.18,94.96 -315.51,180.5 -30.626,29.29 -59.001,61.26 -84.509,95.26 -56.652,74.88 -100.188,160.32 -126.309,251.7 -62.082,217.07 -96.91,397.57 -206.007,596.5 -6.961,12.71 -14.133,25.92 -15.469,40.36 -1.328,14.45 3.281,28.89 8.301,42.51 38.515,105.41 104.796,177.33 131.632,285.09 33.704,135.02 73.555,262.97 138.192,387.02 29.504,56.55 63.715,109.61 106.23,157.04 31.344,34.93 66.489,65.66 104.389,92.2 23.15,16.38 47.43,31.14 72.53,44.25 31.95,16.8 65.25,31.14 99.36,43.02 72.12,25 148.13,39.24 223.93,43.03 2.26,0.21 4.71,0.31 7.07,0.31 65.67,2.86 131.22,-1.44 196.17,-11.27 28.07,-4.2 56.03,-9.43 83.8,-15.57 37.28,-8.2 74.16,-18.04 110.84,-29.09 49.48,-14.86 98.24,-32.17 146.28,-50.92 59.21,-23.05 117.6,-48.76 174.66,-77.34 0.41,-0.21 0.92,-0.41 1.33,-0.62 29.2,-14.54 58.08,-29.81 86.46,-45.89 45.28,-25.61 89.43,-53.27 132.15,-83.08 63.71,-44.56 124.05,-93.83 179.98,-148.43 6.35,-6.25 12.5,-12.4 18.44,-18.85 95.17,-101.21 154.79,-230.29 233.97,-344.4 71.41,-102.75 116.17,-217.78 191.05,-317.46 25.82,-34.32 114.53,-98.34 105.11,-141.26"
         style="fill:#81cc29;fill-opacity:1;fill-rule:nonzero;stroke:none"
         id="path52" /><path
         d="m 1218.2,4528.22 c -25.92,-172.92 -63.31,-344.61 -110.43,-512.91 -23.76,-84.62 -50.5,-168.01 -80.62,-250.58 -3.99,-10.96 -7.79,-22.12 -11.68,-33.59 -30.626,29.29 -59.001,61.26 -84.509,95.26 23.867,89.43 51.426,177.94 76.009,267.17 88.81,322.78 144.54,652.95 141.27,988.53 -1.54,158.38 -17.52,316.44 -47.85,471.94 -8.19,42.11 -17.82,83.6 -28.47,124.78 23.15,16.38 47.43,31.14 72.53,44.25 24.38,-70.89 43.84,-143.42 59.82,-215.12 71.6,-320.94 62.38,-656.33 13.93,-979.73"
         style="fill:#299740;fill-opacity:1;fill-rule:nonzero;stroke:none"
         id="path54" /><path
         d="m 1744.43,5428.04 c -11.68,-356.08 -19.05,-712.05 -18.44,-1068.23 0.21,-176.41 2.67,-352.91 7.17,-529.21 2.36,-91.57 4.1,-183.06 5.23,-274.64 0.1,-4.5 0.1,-9.01 0.2,-13.42 -37.28,-6.34 -74.78,-11.36 -112.37,-14.33 -1.23,22.84 -2.26,45.68 -3.59,68.42 -6.05,101.72 -8.71,203.34 -10.76,305.17 -12.8,632.15 -3.68,1266.87 59.11,1896.36 28.07,-4.2 56.03,-9.43 83.8,-15.57 -3.18,-118.12 -6.46,-236.33 -10.35,-354.55"
         style="fill:#299740;fill-opacity:1;fill-rule:nonzero;stroke:none"
         id="path56" /><path
         d="m 2381.5,3767.71 c -39.64,-19.46 -79.49,-38.21 -119.75,-56.24 -13.52,53.37 -25.61,106.94 -36.98,160.42 -123.34,578.78 -129.59,1172.01 -38.21,1753.35 0.41,-0.21 0.92,-0.41 1.33,-0.62 29.2,-14.54 58.08,-29.81 86.46,-45.89 -7.99,-78.67 -14.14,-157.45 -19.16,-236.02 -21.31,-334.05 -13.52,-671.28 25.92,-1003.8 19.87,-166.98 49.58,-332.52 84.21,-497.04 5.22,-24.79 10.65,-49.47 16.18,-74.16"
         style="fill:#299740;fill-opacity:1;fill-rule:nonzero;stroke:none"
         id="path58" /><path
         d="m 1685.38,4737.52 c -18.88,19.05 -40.33,39.57 -66.6,39.9 -28.07,0.34 -51.59,-23.28 -64.46,-49.31 -22.51,-45.56 -21.21,-103 3.33,-147.4 24.55,-44.41 71.57,-74.36 120.66,-76.86 -11.27,-30.52 -53.86,-32.15 -81.41,-16.52 -27.54,15.61 -48.87,42.29 -78.1,54.11 -50.05,-24.78 -65.57,-97.14 -43.13,-149.97 22.44,-52.82 72.81,-87.43 124.96,-106.95 105.53,-39.52 227.94,-26.47 323.63,34.49 96.93,61.75 158.7,167 177.89,282.55 -164.73,-78.78 -292.7,10.89 -416.77,135.96"
         style="fill:#1e6634;fill-opacity:1;fill-rule:nonzero;stroke:none"
         id="path60" /><path
         d="m 4404,4417.22 c -54.95,23.26 -85.42,42.29 -80.43,54.72 -40.79,-101.57 59.86,-210.47 46.11,-319.06 -7.02,-55.46 -43.7,-105.34 -43.07,-161.24 0.78,-69.49 58.16,-124.47 115.87,-163.19 392.61,-263.42 962.31,-136.04 1253.87,216.81 -111.07,28.72 -1014.56,254.39 -1292.35,371.96"
         style="fill:#be1c2d;fill-opacity:1;fill-rule:nonzero;stroke:none"
         id="path62" /><path
         d="m 5955.42,5598.97 c -304.18,260.78 -740.66,342.62 -1112.88,208.65 -128.02,-46.08 -247.13,-115.12 -364.99,-184.69 -62.68,-37 -217,-107.37 -231.59,-191.09 -8.41,-48.21 22.29,-50.05 38.34,-84.04 23.28,-49.32 14.47,-88.73 5.59,-144.35 -8.92,-55.81 -17.83,-111.63 -26.75,-167.45 -9.07,-56.79 -18.78,-115.35 -48.65,-163.76 -6.16,-9.98 -13.23,-22.95 -6.67,-32.65 3.87,-5.73 11.09,-7.58 17.71,-8.84 106.37,-20.29 219.38,41.01 321.19,71.17 116.52,34.51 233.66,66.74 351.34,96.66 235.37,59.84 472.88,110.44 711.9,151.66 l 345.46,448.73"
         style="fill:#be1c2d;fill-opacity:1;fill-rule:nonzero;stroke:none"
         id="path64" /><path
         d="m 6892.66,4430.99 c -17.31,-20.28 -35.75,-40.16 -54.8,-59.62 -81.86,-83.8 -177.02,-160.11 -264.81,-232.95 -5.74,-4.71 -11.47,-9.52 -17.31,-14.24 -88.3,-71.8 -181.83,-137.88 -281,-192.27 -90.95,-49.89 -186.53,-90.05 -287.03,-116.07 -30.62,-7.89 -61.46,-14.44 -92.5,-19.66 -190.33,-32.47 -387.02,-18.34 -578.17,13 -38.21,6.25 -76.52,13.32 -114.73,21.41 -106.33,22.24 -212.05,51.74 -313.36,90.97 -43.43,16.8 -86.05,35.34 -127.54,55.93 -95.88,47.53 -185.83,105.72 -265.93,177.12 -34.01,30.12 -66.18,62.59 -96.4,97.73 -54.29,63.31 -101.41,134.09 -164.41,187.87 -63,53.78 -148.03,89.12 -226.19,65.46 -0.41,-0.1 -0.71,-0.21 -1.02,-0.3 -47.74,-14.76 -87.28,-49.38 -125.18,-83.09 -13.01,-11.57 -26.02,-23.15 -39.14,-34.73 -55.82,-49.67 -111.76,-99.36 -167.59,-148.94 -24.89,-22.13 -51.22,-44.97 -83.28,-51.84 -3.48,-0.71 -7.07,-1.22 -10.75,-1.53 -29.51,-1.74 -61.16,13.83 -68.74,43.12 -5.43,20.9 2.35,42.72 9.12,63.21 68.32,206.41 44.05,443.97 -64.54,630.72 -25.92,44.66 -53.07,110.84 -11.99,140.65 0.82,0.51 1.64,1.13 2.46,1.64 15.57,9.94 35.34,9.94 53.78,8.81 50.2,-3.18 99.98,-12.19 148.23,-26.63 70.38,-21 137.57,-53.58 198.12,-96.5 42.82,-30.32 84.21,-66.58 134.81,-77.44 7.78,-1.75 15.57,-2.78 23.46,-3.28 15.36,-0.93 30.83,0.3 46.1,3.28 32.47,6.03 64.33,19.46 94.04,34.82 11.98,6.14 23.76,12.71 35.34,19.46 82.46,47.95 156.53,109.82 229.05,174.05 47.84,42.31 95.06,85.64 143.52,126.72 35.24,29.8 71.4,58.49 108.48,85.94 62.08,46.1 126.62,88.62 193.41,126.72 114.01,65.36 234.38,117.91 359.66,153.76 16.19,4.61 32.58,9.01 48.97,13.12 186.14,46.19 382.71,53.67 569.77,14.54 75.29,-15.67 149.05,-38.82 219.93,-70.07 11.27,-5.02 22.44,-10.14 33.6,-15.57 14.14,-6.76 28.07,-13.93 41.8,-21.31 160.11,-86.15 299.84,-213.48 402.59,-367.86 4.7,-6.96 9.31,-14.03 13.83,-21.1 74.57,-117.29 128.86,-246.67 185.51,-373.9 27.25,-61.16 51.43,-135.43 88.51,-190.64 18.03,-26.63 86.56,-54.7 91.27,-85.84 2.57,-16.6 -8.19,-32.07 -18.95,-44.67"
         style="fill:#f03d80;fill-opacity:1;fill-rule:nonzero;stroke:none"
         id="path66" /><path
         d="m 5253.94,5484.27 c -1.95,-141.88 -192.99,-249.85 -308.03,-155.19 -3.49,2.87 -6.77,5.84 -9.94,8.8 -24.18,8.82 -45.89,25.11 -62.08,50.82 -10.76,17.1 -16.39,34.52 -17.72,51.83 114.01,65.36 234.38,117.91 359.66,153.76 24.79,-30.42 38.62,-69.45 38.11,-110.02"
         style="fill:#100f0d;fill-opacity:1;fill-rule:nonzero;stroke:none"
         id="path68" /><path
         d="m 4669.42,5023.81 c -80.82,-54.91 -196.07,-30.43 -243.6,51.53 -5.84,8.09 -10.96,16.7 -15.06,25.81 47.84,42.31 95.06,85.64 143.52,126.72 35.24,29.8 71.4,58.49 108.48,85.94 103.16,-68.73 111.76,-218.7 6.66,-290"
         style="fill:#100f0d;fill-opacity:1;fill-rule:nonzero;stroke:none"
         id="path70" /><path
         d="m 5125.92,5037.56 c -48.01,50.98 -124.62,78.47 -192.06,53.3 -38.88,-14.51 -70.25,-42.83 -88.87,-77.78 -14.76,-16.99 -25.72,-37.57 -31.46,-60.39 -33.08,-131.58 94.6,-231.25 217.27,-207.56 53.89,10.42 106.23,48.33 133.52,96.27 37.26,65.48 9.67,145.12 -38.4,196.16"
         style="fill:#100f0d;fill-opacity:1;fill-rule:nonzero;stroke:none"
         id="path72" /><path
         d="m 5709.17,5530.17 c -5.65,6.5 -11.78,12.74 -18.88,18.37 -29.18,23.15 -65.48,31.7 -100.12,24.46 -44.13,-2.32 -86.75,-22 -115.53,-57.98 -13.42,-16.78 -22.35,-36.05 -27.23,-56.21 -23.93,-52.98 -17.81,-118.51 19.98,-163.58 85.61,-102.09 262.48,-44.92 284.23,82.63 9.62,56.36 -3.63,114.12 -42.45,152.31"
         style="fill:#100f0d;fill-opacity:1;fill-rule:nonzero;stroke:none"
         id="path74" /><path
         d="m 6129.9,5515 c -51.43,-92.09 -193.41,-122.72 -267.36,-34.62 -32.58,39.03 -41.6,93.33 -27.97,141.57 75.29,-15.67 149.05,-38.82 219.93,-70.07 11.27,-5.02 22.44,-10.14 33.6,-15.57 14.14,-6.76 28.07,-13.93 41.8,-21.31"
         style="fill:#100f0d;fill-opacity:1;fill-rule:nonzero;stroke:none"
         id="path76" /><path
         d="m 5613.01,4862.16 c -70.31,40.76 -165.37,28.78 -228.46,-19.52 -62.14,-47.57 -88.47,-127.81 -64.43,-202.81 13.85,-43.19 44.71,-77.27 83.06,-96.3 33.66,-20.98 75.04,-28.9 116.75,-20.57 73.37,14.65 130.37,69.2 159,136.44 32.66,76.7 6.97,160.5 -65.92,202.76"
         style="fill:#100f0d;fill-opacity:1;fill-rule:nonzero;stroke:none"
         id="path78" /><path
         d="m 5296.83,4431.68 c -17.27,71.6 -86.99,123.56 -158.57,129.72 -69.13,5.96 -136.41,-32.84 -172.54,-91.16 -36.06,-58.19 -38.37,-134.06 -1.56,-192.36 47.24,-74.83 139.76,-86.45 213.03,-44.25 79.31,22.4 141.57,107.19 119.64,198.05"
         style="fill:#100f0d;fill-opacity:1;fill-rule:nonzero;stroke:none"
         id="path80" /><path
         d="m 5695.61,4140.13 c -24.26,87.09 -119.36,124.02 -201.03,94.07 -84.27,-30.9 -148.81,-116.23 -126.97,-208.84 20,-84.86 105.45,-147.42 192.97,-119.9 31.79,9.99 57.96,30.37 76.21,55.91 57.9,38.36 76.96,113.68 58.82,178.76"
         style="fill:#100f0d;fill-opacity:1;fill-rule:nonzero;stroke:none"
         id="path82" /><path
         d="m 6274.74,3931.91 c -90.95,-49.89 -186.53,-90.05 -287.03,-116.07 -30.62,-7.89 -61.46,-14.44 -92.5,-19.66 -37.19,55.51 -46.51,127.84 -6.77,191.25 27.47,43.94 78.48,69.15 129.49,68.83 93.33,34.43 205.19,12.91 247.29,-91.68 4.41,-10.95 7.58,-21.81 9.52,-32.67"
         style="fill:#100f0d;fill-opacity:1;fill-rule:nonzero;stroke:none"
         id="path84" /><path
         d="m 5202.31,3830.59 c -106.33,22.24 -212.05,51.74 -313.36,90.97 4.5,13.52 10.75,26.43 18.64,38.41 15.67,23.77 39.95,46 67.31,59.12 0.41,0.3 0.82,0.61 1.33,0.82 63.61,36.15 145.97,19.15 193.81,-34.53 37.9,-42.61 48.35,-101.93 32.27,-154.79"
         style="fill:#100f0d;fill-opacity:1;fill-rule:nonzero;stroke:none"
         id="path86" /><path
         d="m 4470.88,4682.39 c -4.37,-3.7 -8.64,-7.6 -12.64,-11.93 -50.48,-54.39 -42.14,-140.5 -1.02,-197.01 98.48,-135.36 343.17,-68.08 349.91,102.76 6.88,174.24 -240.14,236.42 -336.25,106.18"
         style="fill:#100f0d;fill-opacity:1;fill-rule:nonzero;stroke:none"
         id="path88" /><path
         d="m 4777.9,4013.96 c -3.68,-12.91 -9.32,-25.2 -16.49,-36.47 -95.88,47.53 -185.83,105.72 -265.93,177.12 7.99,13.22 17.93,25.4 29.6,35.76 87.08,77.12 242.68,37.9 266.24,-81.55 6.56,-32.89 0.72,-65.87 -13.42,-94.86"
         style="fill:#100f0d;fill-opacity:1;fill-rule:nonzero;stroke:none"
         id="path90" /><path
         d="m 4275.64,4623.37 c -9.32,-10.45 -19.87,-19.36 -31.24,-26.94 -18.34,-15.06 -40.26,-26.02 -65.05,-30.73 -79.39,-15.36 -166.15,18.95 -202.32,94.14 -33.6,69.86 -20.59,153.66 29.2,209.7 15.36,-0.93 30.83,0.3 46.1,3.28 32.47,6.03 64.33,19.46 94.04,34.82 11.98,6.14 23.76,12.71 35.34,19.46 49.47,-9.52 95.06,-37.8 121.59,-82.36 42.72,-71.91 25.92,-161.13 -27.66,-221.37"
         style="fill:#100f0d;fill-opacity:1;fill-rule:nonzero;stroke:none"
         id="path92" /><path
         d="m 6892.67,4430.99 c -17.35,-20.29 -35.72,-40.2 -54.8,-59.66 -81.91,-83.71 -177.02,-160.12 -264.8,-232.9 -5.74,-4.76 -11.53,-9.48 -17.31,-14.21 -36.91,13.78 -73.35,31.23 -110.84,41.9 -161.05,45.88 -329.3,52.44 -494.4,71.9 -52.08,6.12 -105.73,14.17 -150.39,42.82 -36.19,23.23 -63.74,58.26 -90.58,92.63 -36.65,46.97 -73.26,93.91 -109.91,140.88 -18.21,23.31 -36.83,47.45 -45.13,76.27 -7.22,24.93 -6.08,51.57 -4.57,77.55 6.41,111.44 19.58,224.36 61.77,326.97 66.38,161.39 197.53,282.23 324.64,397.39 32.42,29.35 67.55,60.05 110.16,65.38 53.94,6.79 103.55,-28.47 147.29,-61.97 117.51,-89.96 234.97,-179.93 352.48,-269.94 74.56,-117.21 128.87,-246.58 185.57,-373.81 27.26,-61.24 51.37,-135.5 88.53,-190.65 17.95,-26.63 86.47,-54.71 91.25,-85.85 2.56,-16.67 -8.18,-32.11 -18.96,-44.7"
         style="fill:#f78ec0;fill-opacity:1;fill-rule:nonzero;stroke:none"
         id="path94" /><path
         d="m 6892.67,4430.99 c -17.35,-20.29 -35.72,-40.2 -54.8,-59.66 -93.02,-21.08 -189.1,-28.87 -284.5,-30.66 -209.94,-4.06 -425.96,21.43 -611.95,123.07 -75.99,41.56 -147.15,96.75 -194.8,171.23 -102.82,160.74 -74.98,382.87 19.42,549.16 79.72,140.48 198.87,249.91 322.03,352.16 177.56,-85.72 332.82,-221.48 444.46,-389.12 81.73,-122.72 139.18,-260.06 199.32,-394.98 27.26,-61.24 51.37,-135.5 88.53,-190.65 17.95,-26.63 86.47,-54.71 91.25,-85.85 2.56,-16.67 -8.18,-32.11 -18.96,-44.7"
         style="fill:#be1c2d;fill-opacity:1;fill-rule:nonzero;stroke:none"
         id="path96" /><path
         d="m 3628.3,4289.07 c -12.12,-36.09 -26.17,-72.47 -46.76,-103.79 -29.48,-1.75 -61.15,13.78 -68.73,43.07 -5.41,20.91 2.3,42.78 9.1,63.25 68.27,206.43 43.99,443.97 -64.5,630.68 -25.96,44.7 -53.14,110.82 -12,140.65 0.8,0.57 1.59,1.1 2.4,1.62 105.63,-59 184.31,-172.1 216.39,-294.57 41.27,-157.53 15.85,-326.83 -35.9,-480.91"
         style="fill:#be1c2d;fill-opacity:1;fill-rule:nonzero;stroke:none"
         id="path98" /><path
         d="m 4007.41,4505.34 c -47.72,-14.74 -87.19,-49.34 -125.1,-83.01 -13.04,-11.59 -26.08,-23.19 -39.12,-34.77 60.64,99.76 86.3,223.31 62.52,339.08 -29.02,141.36 -129.79,261.77 -255.9,320.11 70.37,-20.99 137.6,-53.58 198.11,-96.48 42.82,-30.31 84.26,-66.56 134.87,-77.5 23.11,-4.99 46.47,-4.33 69.58,0.04 30.15,-121.55 7.21,-251.05 -44.96,-367.47"
         style="fill:#be1c2d;fill-opacity:1;fill-rule:nonzero;stroke:none"
         id="path100" /><path
         d="m 10391.8,5287.15 c -114.4,259.29 -327.8,449.34 -546.52,611.35 -322.36,238.72 -659.26,411.31 -1056.68,496.32 -196.45,42.02 -397.53,62.62 -598.43,60.9 -100.4,-0.85 -200.76,-7.26 -300.44,-19.37 -51.68,-6.28 -234.86,-69.25 -275.41,-48.48 438.46,-224.53 902.96,-693.43 796.46,-1220.91 l 1981.02,120.19"
         style="fill:#f2551a;fill-opacity:1;fill-rule:nonzero;stroke:none"
         id="path102" /><path
         d="m 9992.88,4369.96 c 47.32,-43.7 98.42,-96.21 97.22,-162.08 -0.7,-33.38 -15.3,-64.75 -32.3,-93.03 -31.1,-51.61 -71.4,-97.14 -118.2,-133.63 -66.15,-51.55 -143.71,-84.28 -220.32,-116.45 -297.47,-124.92 -565.06,-316.45 -866.38,-424.06 -155.54,-55.56 -319.35,-88.01 -484.3,-96.11 -78.87,-3.86 -158.02,-2.19 -236.63,5.23 -40.32,3.81 -181.45,50.45 -212.43,34.48 179.97,92.71 321.44,251.9 403.3,436.06 83.49,187.86 49.64,354.59 77.3,546.83 21.63,150.3 43.26,300.62 64.88,450.92 l 1527.86,-448.16"
         style="fill:#f2551a;fill-opacity:1;fill-rule:nonzero;stroke:none"
         id="path104" /><path
         d="m 7940.28,5133.81 c -19.75,-60.17 -58.2,-118.76 -48.02,-181.59 8.54,-53.4 51.2,-96.17 58.09,-149.84 8.91,-69.6 -44.2,-132.31 -49.04,-202.31 -5.86,-84.35 58.59,-158.87 61.39,-243.36 2.93,-89.53 -63.43,-179.86 -30.18,-262.61 70.94,6.1 133.48,54.72 175.39,114.76 41.9,60.18 66.23,131.25 90.17,201.12 38.72,113.44 77.32,226.75 116.04,340.2 77.44,-145.33 74.26,-321.6 119.86,-481.01 72.73,-254.24 279.84,-461.87 526.3,-527.5 162.91,-43.43 335.5,-27.62 499.56,10.77 202.9,47.55 397.15,129.12 584.56,222.9 103.6,51.8 206.7,108.79 303.4,174.55 133.7,90.99 255.1,198.72 348.1,333.41 8.2,11.96 16.6,25.78 14.7,40.52 -3.9,28.69 -40,34.81 -66.1,44.77 -43.4,16.74 -73.8,64.56 -68.8,111.18 0,-22.18 175.4,-22.72 188.7,36.53 9.4,42.91 -79.4,106.94 -105.1,141.21 -74.9,99.76 -119.7,214.79 -191.1,317.48 -79.2,114.11 -138.8,243.23 -233.9,344.45 -6,6.37 -12.1,12.62 -18.5,18.86 -55.9,54.59 -116.3,103.88 -180,148.38 -69.41,48.49 -142.77,91.26 -218.56,128.98 -57.44,28.83 -116.41,54.73 -176.02,77.98 -48.02,18.73 -96.81,36 -146.23,50.88 -127.38,38.52 -258.82,61.63 -390.9,55.92 -2.3,0 -4.72,-0.13 -7.01,-0.27 -75.78,-3.85 -151.83,-18.06 -223.92,-43.03 -104.71,-36.4 -201.12,-95.65 -276.28,-179.47 -42.54,-47.42 -76.79,-100.56 -106.22,-157.01 -80.12,-153.83 -124.06,-332.36 -200.87,-490.3 -140.49,131.77 -162.65,365.43 -309.38,489.5 -14.02,11.69 -30.32,22.72 -48.27,21.79 -51.98,-3.06 -49.55,-84.22 -31.34,-135.1 42.79,-119.55 78.97,-251.99 39.48,-372.74"
         style="fill:#fbc81a;fill-opacity:1;fill-rule:nonzero;stroke:none"
         id="path106" /><path
         d="m 9694.97,5420.61 c 22.41,-133.24 103.81,-222.91 174.63,-330.37 8.14,1.06 15.28,4.78 21.27,10.1 15.03,13.41 22.67,37.33 21.27,58.84 -1.92,30.15 -15.92,57.79 -23.19,86.88 -30.82,122.74 40,275.9 102.54,375.13 14.01,22.31 29.81,43.57 44.31,65.49 -69.41,48.49 -142.77,91.26 -218.56,128.98 -8.79,-7.3 -17.57,-14.61 -26.36,-21.92 -108.14,-89.93 -118.71,-238.7 -95.91,-373.13"
         style="fill:#100f0d;fill-opacity:1;fill-rule:nonzero;stroke:none"
         id="path108" /><path
         d="m 9133.51,5574.56 c 56.68,-153.29 161.38,-324.12 247.74,-462 8.15,-13.02 22.42,-27.77 35.53,-20.32 -1.27,8.76 -2.54,17.66 -3.69,26.56 -34.14,257.84 -15.41,577.84 78.21,816.55 1.15,3.06 2.42,6.11 3.69,9.17 -127.38,38.52 -258.82,61.63 -390.9,55.92 -47.26,-134.3 -21.41,-288.65 29.42,-425.88"
         style="fill:#100f0d;fill-opacity:1;fill-rule:nonzero;stroke:none"
         id="path110" /><path
         d="m 8490.66,5620.66 c 4.84,-15.54 10.19,-30.95 15.79,-46.1 54.26,-146.51 134.13,-287.46 222.78,-413.38 10.18,-14.62 22.16,-33.74 34.01,-55.8 50.57,-94.04 99.98,-241.1 17.82,-314.82 106.5,95.65 164.45,247.21 150.18,393.07 -10.95,111.18 -60.12,214 -86.49,322.39 -33.75,139.35 -32.98,295.3 19.5,429.33 2.79,7.31 5.85,14.48 8.91,21.79 -104.71,-36.4 -201.12,-95.65 -276.28,-179.47 -42.54,-47.42 -76.79,-100.56 -106.22,-157.01"
         style="fill:#100f0d;fill-opacity:1;fill-rule:nonzero;stroke:none"
         id="path112" /><path
         d="m 9408.94,4843.94 c -18.88,19.03 -40.33,39.57 -66.6,39.89 -28.07,0.34 -51.59,-23.28 -64.45,-49.3 -22.52,-45.56 -21.22,-103.01 3.33,-147.41 24.55,-44.4 71.56,-74.35 120.65,-76.86 -11.27,-30.51 -53.86,-32.14 -81.4,-16.53 -27.54,15.62 -48.87,42.3 -78.11,54.12 -50.05,-24.78 -65.57,-97.13 -43.12,-149.97 22.44,-52.83 72.81,-87.43 124.96,-106.95 105.52,-39.51 227.94,-26.46 323.62,34.48 96.93,61.75 158.7,167.01 177.89,282.56 -164.73,-78.79 -292.69,10.89 -416.77,135.97"
         style="fill:#f2551a;fill-opacity:1;fill-rule:nonzero;stroke:none"
         id="path114" /><path
         d="m 4375.66,1092.78 c 25.49,-187.53 118.01,-365.249 257.02,-493.671 139.01,-128.437 323.48,-206.64 512.43,-217.23 48.94,-2.738 99.26,-0.879 144.9,16.992 44.83,17.57 82.49,49.527 116.52,83.59 64.89,64.949 119.98,139.68 162.82,220.891 L 4375.66,1092.78"
         style="fill:#a61c23;fill-opacity:1;fill-rule:nonzero;stroke:none"
         id="path116" /><path
         d="m 4236.68,1483.31 c -1.43,21.38 -156.56,36.75 -172.56,40.51 -63.7,14.96 -127.41,29.92 -191.12,44.89 -82.98,19.48 -181.06,35.45 -244.34,-21.67 -38.02,-34.32 -52.87,-87.19 -61,-137.78 -25.45,-158.48 -1.09,-324.61 68.78,-469.119 21.86,-45.211 51.32,-91.231 98.04,-109.661 28.36,-11.179 59.78,-10.781 90.26,-10.199 207.35,3.848 280.16,65.688 445.44,162.199 0,0 -33.48,500.51 -33.5,500.83"
         style="fill:#a61c23;fill-opacity:1;fill-rule:nonzero;stroke:none"
         id="path118" /><path
         d="m 5580.76,1980.92 c 112.39,76.98 184.23,257.64 169.85,367.27 -3.88,29.68 -14.75,60.41 -43.1,82.04 -45.94,35.06 -121.83,35.9 -188.2,30.87 -567.39,-42.93 -1076.71,-357.99 -1224.1,-757.2 -43.98,-119.12 -58.72,-416.56 206.24,-298.83 134.61,59.83 220,161.19 355.47,216.57 255.49,104.45 509.8,212.66 723.84,359.28"
         style="fill:#a61c23;fill-opacity:1;fill-rule:nonzero;stroke:none"
         id="path120" /><path
         d="m 7044.7,1392.98 c -0.2,-12 -1.6,-24.5 -4.5,-37.6 -6.2,-27.9 -16.6,-56 -30.1,-84 -5.3,-11.09 -11.2,-22.2 -17.5,-33.3 -3.2,-5.6 -6.5,-11.09 -9.9,-16.89 C 6882,1054.89 6746.8,878.98 6586,739.98 c -51.7,-44.601 -105.99,-85.488 -162.69,-120.8 -109.6,-68.7 -227.9,-117.098 -352.71,-134.098 -227.29,-30.902 -458.09,11.508 -679.9,69.898 -321,84.512 -660.9,171.5 -950.19,334.911 -62.81,35.398 -129.2,57.5 -189.11,81.488 -127.1,50.901 -224.6,110.611 -193.39,325.701 14.6,100.2 84.69,152.9 163.1,197.81 18.59,10.59 37.39,20.59 56.3,30.9 8.99,4.9 17.9,9.79 26.69,14.9 23.8,13.29 46.9,27.29 68.1,42.89 25.3,18.7 51.41,37.8 78.2,57.4 56.9,41.5 117.21,84.5 180.11,127.5 56.99,39.1 116.29,78.11 177.3,115.9 62.7,38.91 127.3,76.5 193.19,111.41 58.8,31.29 118.6,60.4 179.1,86.49 347.81,150.2 717.01,200.2 1035.71,-28.9 171.7,-123.3 322.6,-280.59 499.6,-398.6 112.19,-74.8 330.4,-111.7 329.29,-261.8"
         style="fill:#ef8314;fill-opacity:1;fill-rule:nonzero;stroke:none"
         id="path122" /><path
         d="M 6586,740.02 C 6534.32,695.379 6479.97,654.531 6423.27,619.141 6226.82,538.109 5997.02,578.73 5836.18,739.91 5705.37,871.051 5622,1071.51 5575.23,1259.8 c -8.14,32.48 -15.07,64.74 -20.98,96.1 -2.02,10.72 -3.58,26.34 -4.57,45.87 -8.04,162.63 21.53,592.89 103.34,639.77 -21.09,-247.22 -92.08,-471.23 -44.3,-691.66 3.46,-16.3 7.59,-32.48 12.61,-48.67 24.56,-81.81 67.3,-163.29 136.72,-245.55 C 5968.44,806.992 6289.56,760.34 6586,740.02"
         style="fill:#e73e1f;fill-opacity:1;fill-rule:nonzero;stroke:none"
         id="path124" /><path
         d="m 5594.5,1364.6 c -114.56,90.05 -214,213.78 -368.55,221.25 -192.51,9.33 -193.39,-145.36 -201.02,-302.78 -6.1,-126.03 -35.41,-345.808 122.85,-349.41 86.86,-1.98 143.6,72.59 203.55,130.44 93.06,89.8 195.35,165.33 287.84,253.91 l -44.67,46.59"
         style="fill:#e73e1f;fill-opacity:1;fill-rule:nonzero;stroke:none"
         id="path126" /><path
         d="m 7044.71,1392.94 c -0.16,-11.88 -1.67,-24.45 -4.52,-37.56 -9.88,-44.72 -30.49,-89.61 -57.46,-133.99 v -0.18 c -86.43,-15.2 -175.9,60.28 -180.42,179.6 71.87,-38.78 169.37,-45.78 242.4,-7.87"
         style="fill:#e73e1f;fill-opacity:1;fill-rule:nonzero;stroke:none"
         id="path128" /><path
         d="m 4376.2,1264.09 c -47.5,60.09 -57.99,126.39 -66,200.99 -2.7,25.21 -4.8,50.4 -6.1,75.61 23.8,13.29 46.9,27.29 68.1,42.89 25.3,18.7 51.41,37.8 78.2,57.4 -3.6,-43 -6.3,-86.09 -7.19,-129.1 -1.21,-55.8 -11.9,-131.99 19.2,-181.3 32.79,-52.1 -47.41,-115.5 -86.21,-66.49"
         style="fill:#100f0d;fill-opacity:1;fill-rule:nonzero;stroke:none"
         id="path130" /><path
         d="m 4790.6,1669.38 c -2.7,-82.6 0.2,-165.29 2.01,-247.79 1.59,-73.4 -107.41,-86.3 -126.1,-17.1 -23.41,86.3 -34.01,175.49 -35.6,264.89 -0.6,30.7 -1.31,64.6 -0.4,99.1 56.99,39.1 116.29,78.11 177.3,115.9 -1.5,-33.4 -8.11,-67.1 -11.11,-100.4 -3.29,-38.1 -4.9,-76.4 -6.1,-114.6"
         style="fill:#100f0d;fill-opacity:1;fill-rule:nonzero;stroke:none"
         id="path132" /><path
         d="m 5167.1,2038.08 c -27.5,-113.5 -49.69,-232.6 -40.9,-350 4.91,-65.9 -92.5,-72.79 -110.49,-14.89 -33.81,108.49 -31.61,213.09 -14.71,322.6 58.8,31.29 118.6,60.4 179.1,86.49 -5.4,-17.7 -10.3,-33 -13,-44.2"
         style="fill:#100f0d;fill-opacity:1;fill-rule:nonzero;stroke:none"
         id="path134" /><path
         d="m 5962.41,1755.86 c -168.48,-150.42 -93.61,-437.03 83.82,-543.73 204.27,-122.82 463.48,115.06 434.49,341.55 -21.9,171.14 -155.91,293.8 -321.25,279.96 -85.16,-7.13 -150.2,-35.93 -197.06,-77.78"
         style="fill:#ffffff;fill-opacity:1;fill-rule:nonzero;stroke:none"
         id="path136" /><path
         d="m 6224.91,1340.53 c 156.42,-54.63 283.52,127.9 186.06,268.8 -86.68,125.3 -289.52,74.9 -293.24,-86.98 -1.86,-81.26 29.05,-154.54 107.18,-181.82"
         style="fill:#100f0d;fill-opacity:1;fill-rule:nonzero;stroke:none"
         id="path138" /><path
         d="m 6325.52,1446.56 c 33.41,-45.53 109.28,-18.24 106.69,40.95 -2.07,47.38 -45.61,84.53 -83.62,57.35 -31.65,-22.65 -49.04,-62.91 -23.07,-98.3"
         style="fill:#ffffff;fill-opacity:1;fill-rule:nonzero;stroke:none"
         id="path140" /><path
         d="m 9869.38,5152.44 c -174.5,-155.81 -96.96,-452.71 86.83,-563.22 211.59,-127.23 480.09,119.17 450.09,353.78 -22.7,177.28 -161.5,304.34 -332.8,289.99 -88.19,-7.39 -155.56,-37.21 -204.12,-80.55"
         style="fill:#ffffff;fill-opacity:1;fill-rule:nonzero;stroke:none"
         id="path142" /><path
         d="m 10141.3,4722.21 c 162,-56.58 293.7,132.48 192.7,278.43 -89.8,129.8 -299.9,77.6 -303.7,-90.1 -2,-84.17 30.1,-160.07 111,-188.33"
         style="fill:#100f0d;fill-opacity:1;fill-rule:nonzero;stroke:none"
         id="path144" /><path
         d="m 10245.5,4832.04 c 34.6,-47.15 113.2,-18.88 110.5,42.42 -2.1,49.08 -47.2,87.57 -86.6,59.4 -32.8,-23.46 -50.8,-65.15 -23.9,-101.82"
         style="fill:#ffffff;fill-opacity:1;fill-rule:nonzero;stroke:none"
         id="path146" /><path
         d="m 1523.15,7755.7 c -20.97,-30.6 -42.46,-62.44 -48.88,-98.97 -6.43,-36.54 6.58,-79.26 39.75,-95.87 17.16,-8.61 37.19,-9.21 56.35,-7.97 57.13,3.72 113.2,22.66 160.89,54.33 -14.03,-32.82 -20.24,-68.96 -17.96,-104.58 92,-33.47 190.19,28.87 260.93,96.54 38.13,36.47 73.81,75.49 106.75,116.71 13.16,16.47 26.22,34.01 30.8,54.6 14.06,63.34 -54.78,112.68 -116.05,134.05 -138.38,48.28 -285.07,63.36 -423.64,112.36 -106.4,37.62 -198.43,76.94 -300.73,8.57 -95.11,-63.55 -207.66,-233.88 -95.39,-315.74 94.28,-68.73 273.94,-36.46 347.18,45.97"
         style="fill:#a61c23;fill-opacity:1;fill-rule:nonzero;stroke:none"
         id="path148" /><path
         d="m 1013.65,8551.24 c -69.787,145.9 -293.744,237.53 -437.279,289.09 -98.586,35.41 -229.051,49.8 -289.484,-35.76 -45.184,-63.98 -23.469,-158.23 31.461,-214.06 54.929,-55.82 134.332,-80.11 211.738,-92.01 -52.91,-29.88 -113.898,-43.25 -166.691,-73.35 -52.786,-30.11 -98.989,-86.32 -88.653,-146.2 8.762,-50.78 56.563,-87.58 106.684,-99.54 50.113,-11.96 102.57,-4.08 153.484,3.84 -98.207,-33.78 -158.125,-133.06 -193.277,-230.79 -19.559,-54.38 -33.504,-117.08 -6.332,-168.09 25.797,-48.44 83.957,-73.05 138.828,-72.12 54.867,0.95 107.066,23.32 155.434,49.25 164.671,88.28 266.839,242.51 425.277,335.03 -8.7,130.05 3.03,279.84 -24.42,406.18 -3.64,16.81 -9.33,32.97 -16.77,48.53"
         style="fill:#a61c23;fill-opacity:1;fill-rule:nonzero;stroke:none"
         id="path150" /><path
         d="m 1878.19,8852.03 c 40.44,16.37 80.34,32.58 119.44,47.07 117.99,43.72 245.84,24.19 337.55,129.15 89.42,102.35 55.95,221.62 -15.96,324.98 -102.63,147.5 -276.86,238.16 -447.97,279.81 -78.95,19.22 -181.15,18.44 -219.45,-53.22 -36.51,-68.34 12.08,-149.48 58.67,-211.39 -55.27,28.5 -112.17,57.52 -174.02,64.03 -61.85,6.5 -130.66,-14.51 -163.77,-67.15 -33.1,-52.64 -12.11,-136.69 47.74,-153.59 -81.57,22.11 -174.47,40.45 -245.9,-4.73 -120.25,-76.08 -92.54,-276.56 4.47,-360.49 217.25,-187.9 467.05,-88.45 699.2,5.53"
         style="fill:#a61c23;fill-opacity:1;fill-rule:nonzero;stroke:none"
         id="path152" /><path
         d="m 3601.32,8473.25 c -0.15,-10.91 -1.54,-22.45 -4.15,-34.47 -9.07,-41.06 -27.98,-82.26 -52.75,-123.18 -83.23,-137.57 -203.69,-262.31 -307.24,-385.11 -168.33,-199.64 -353.88,-368.73 -624.91,-398.74 -48.36,-5.35 -97.25,-1.74 -145.59,3.7 -324.37,36.44 -587.49,166.9 -879.03,296.25 -125.77,55.8 -255.38,111.44 -376.54,179.91 -179.73,101.5 -393.137,83.38 -351.008,373.62 14.199,97.46 89.836,143.96 166.788,191.13 83.11,50.94 140.68,112.14 217.9,168.52 207.03,151.16 467.41,273.14 712.43,345.71 247.11,73.17 507.85,85.86 756.13,12.32 238.96,-70.77 381.7,-253.31 585.7,-389.3 103.01,-68.63 303.35,-102.62 302.27,-240.36"
         style="fill:#ef8314;fill-opacity:1;fill-rule:nonzero;stroke:none"
         id="path154" /><path
         d="m 3196.12,7872.95 c -199.41,-196.91 -507.68,-195.78 -704.02,0.96 -140.69,141.11 -221.71,369.77 -258.77,565.39 -17.37,91.55 6.61,581.1 90.72,629.2 -27.99,-327.91 -151.76,-611.25 96.4,-904.84 196.8,-232.66 499.23,-272.59 775.67,-290.71"
         style="fill:#e73e1f;fill-opacity:1;fill-rule:nonzero;stroke:none"
         id="path156" /><path
         d="m 2270.3,8416.12 c -105.15,82.64 -196.41,196.2 -338.25,203.07 -176.69,8.55 -177.5,-133.41 -184.5,-277.9 -5.6,-115.68 -32.5,-317.39 112.75,-320.7 79.72,-1.81 131.8,66.64 186.82,119.72 85.41,82.42 179.29,151.74 264.18,233.05 l -41,42.76"
         style="fill:#fbc81a;fill-opacity:1;fill-rule:nonzero;stroke:none"
         id="path158" /><path
         d="m 3601.32,8473.25 c -0.15,-10.91 -1.54,-22.45 -4.15,-34.47 -9.07,-41.06 -27.98,-82.26 -52.74,-122.99 v -0.17 c -79.33,-13.94 -161.43,55.33 -165.58,164.85 65.95,-35.6 155.43,-42.01 222.47,-7.22"
         style="fill:#e73e1f;fill-opacity:1;fill-rule:nonzero;stroke:none"
         id="path160" /><path
         d="m 1477.57,8518.37 c -15.25,-39.43 -11.24,-85.11 -9.67,-126.95 1.89,-50.21 5.78,-99.19 22.93,-146.44 14.34,-39.53 70.2,-45.2 82.35,0 11.62,43.25 9.71,82.78 4.58,126.98 -5.65,48.63 -2.48,98.53 -11.23,146.41 -9.5,52 -73.78,39.24 -88.96,0 v 0"
         style="fill:#1d1b19;fill-opacity:1;fill-rule:nonzero;stroke:none"
         id="path162" /><path
         d="m 1252.24,8526.07 c -10.76,-73.39 -36.39,-156.83 -10.34,-229.2 13.86,-38.51 75.6,-48.61 84.76,0 13.36,70.87 3.95,148.29 -5.05,219.41 -4.68,36.99 -62.76,54.79 -69.37,9.79 v 0"
         style="fill:#1d1b19;fill-opacity:1;fill-rule:nonzero;stroke:none"
         id="path164" /><path
         d="m 1056.28,8380.8 c 10.53,-34.43 4.38,-79.23 26.6,-108.74 3.8,-5.03 13.54,-5.04 17.33,0 24.46,32.53 16.47,86.45 6.11,123.13 -9.45,33.45 -60.22,18.88 -50.04,-14.39 v 0"
         style="fill:#1d1b19;fill-opacity:1;fill-rule:nonzero;stroke:none"
         id="path166" /><path
         d="m 2501.14,8806.34 c -154.63,-138.05 -85.92,-401.12 76.92,-499.04 187.48,-112.73 425.39,105.59 398.79,313.47 -20.11,157.08 -143.1,269.66 -294.85,256.95 -78.15,-6.55 -137.85,-32.97 -180.86,-71.38"
         style="fill:#ffffff;fill-opacity:1;fill-rule:nonzero;stroke:none"
         id="path168" /><path
         d="m 2742.06,8425.14 c 143.56,-50.14 260.21,117.39 170.77,246.7 -79.55,115.01 -265.72,68.75 -269.14,-79.83 -1.71,-74.58 26.67,-141.83 98.37,-166.87"
         style="fill:#100f0d;fill-opacity:1;fill-rule:nonzero;stroke:none"
         id="path170" /><path
         d="m 2834.4,8522.45 c 30.67,-41.78 100.3,-16.73 97.93,37.59 -1.9,43.48 -41.87,77.59 -76.75,52.63 -29.05,-20.78 -45.01,-57.73 -21.18,-90.22"
         style="fill:#ffffff;fill-opacity:1;fill-rule:nonzero;stroke:none"
         id="path172" /><path
         d="m -2527.3363,6178.5048 c -20.97,-30.6 -42.46,-62.44 -48.88,-98.97 -6.43,-36.54 6.58,-79.26 39.75,-95.87 17.16,-8.61 37.19,-9.21 56.35,-7.97 57.13,3.72 113.2,22.66 160.89,54.33 -14.03,-32.82 -20.24,-68.96 -17.96,-104.58 92,-33.47 190.19,28.87 260.93,96.54 38.13,36.47 73.81,75.49 106.75,116.71 13.16,16.47 26.22,34.01 30.8,54.6 14.06,63.34 -54.78,112.68 -116.05,134.05 -138.38,48.28 -285.07,63.36 -423.64,112.36 -106.4,37.62 -198.43,76.94 -300.73,8.57 -95.11,-63.55 -207.66,-233.88 -95.39,-315.74 94.28,-68.73 273.94,-36.46 347.18,45.97"
         style="fill:#a61c23;fill-opacity:1;fill-rule:nonzero;stroke:none"
         id="path148-1" /><path
         d="m -3036.8363,6974.0448 c -69.787,145.9 -293.744,237.53 -437.279,289.09 -98.586,35.41 -229.051,49.8 -289.484,-35.76 -45.184,-63.98 -23.469,-158.23 31.461,-214.06 54.929,-55.82 134.332,-80.11 211.738,-92.01 -52.91,-29.88 -113.898,-43.25 -166.691,-73.35 -52.786,-30.11 -98.989,-86.32 -88.653,-146.2 8.762,-50.78 56.563,-87.58 106.684,-99.54 50.113,-11.96 102.57,-4.08 153.484,3.84 -98.207,-33.78 -158.125,-133.06 -193.277,-230.79 -19.559,-54.38 -33.504,-117.08 -6.332,-168.09 25.797,-48.44 83.957,-73.05 138.828,-72.12 54.867,0.95 107.066,23.32 155.434,49.25 164.671,88.28 266.839,242.51 425.277,335.03 -8.7,130.05 3.03,279.84 -24.42,406.18 -3.64,16.81 -9.33,32.97 -16.77,48.53"
         style="fill:#a61c23;fill-opacity:1;fill-rule:nonzero;stroke:none"
         id="path150-8" /><path
         d="m -2172.2963,7274.8348 c 40.44,16.37 80.34,32.58 119.44,47.07 117.99,43.72 245.84,24.19 337.55,129.15 89.42,102.35 55.95,221.62 -15.96,324.98 -102.63,147.5 -276.86,238.16 -447.97,279.81 -78.95,19.22 -181.15,18.44 -219.45,-53.22 -36.51,-68.34 12.08,-149.48 58.67,-211.39 -55.27,28.5 -112.17,57.52 -174.02,64.03 -61.85,6.5 -130.66,-14.51 -163.77,-67.15 -33.1,-52.64 -12.11,-136.69 47.74,-153.59 -81.57,22.11 -174.47,40.45 -245.9,-4.73 -120.25,-76.08 -92.54,-276.56 4.47,-360.49 217.25,-187.9 467.05,-88.45 699.2,5.53"
         style="fill:#a61c23;fill-opacity:1;fill-rule:nonzero;stroke:none"
         id="path152-7" /><path
         d="m -449.16632,6896.0548 c -0.15,-10.91 -1.54,-22.45 -4.15,-34.47 -9.07,-41.06 -27.98,-82.26 -52.75,-123.18 -83.23,-137.57 -203.69,-262.31 -307.24,-385.11 -168.33,-199.64 -353.87998,-368.73 -624.90998,-398.74 -48.36,-5.35 -97.25,-1.74 -145.59,3.7 -324.37,36.44 -587.49,166.9 -879.03,296.25 -125.77,55.8 -255.38,111.44 -376.54,179.91 -179.73,101.5 -393.137,83.38 -351.008,373.62 14.199,97.46 89.836,143.96 166.788,191.13 83.11,50.94 140.68,112.14 217.9,168.52 207.03,151.16 467.41,273.14 712.43,345.71 247.11,73.17 507.85,85.86 756.13,12.32 238.96,-70.77 381.69998,-253.31 585.69998,-389.3 103.01,-68.63 303.35,-102.62 302.27,-240.36"
         style="fill:#ef8314;fill-opacity:1;fill-rule:nonzero;stroke:none"
         id="path154-9" /><path
         d="m -854.36632,6295.7548 c -199.40998,-196.91 -507.67998,-195.78 -704.01998,0.96 -140.69,141.11 -221.71,369.77 -258.77,565.39 -17.37,91.55 6.61,581.1 90.72,629.2 -27.99,-327.91 -151.76,-611.25 96.4,-904.84 196.8,-232.66 499.23,-272.59 775.66998,-290.71"
         style="fill:#e73e1f;fill-opacity:1;fill-rule:nonzero;stroke:none"
         id="path156-2" /><path
         d="m -1780.1863,6838.9248 c -105.15,82.64 -196.41,196.2 -338.25,203.07 -176.69,8.55 -177.5,-133.41 -184.5,-277.9 -5.6,-115.68 -32.5,-317.39 112.75,-320.7 79.72,-1.81 131.8,66.64 186.82,119.72 85.41,82.42 179.29,151.74 264.18,233.05 l -41,42.76"
         style="fill:#fbc81a;fill-opacity:1;fill-rule:nonzero;stroke:none"
         id="path158-0" /><path
         d="m -449.16632,6896.0548 c -0.15,-10.91 -1.54,-22.45 -4.15,-34.47 -9.07,-41.06 -27.98,-82.26 -52.74,-122.99 v -0.17 c -79.33,-13.94 -161.43,55.33 -165.58,164.85 65.95,-35.6 155.43,-42.01 222.47,-7.22"
         style="fill:#e73e1f;fill-opacity:1;fill-rule:nonzero;stroke:none"
         id="path160-2" /><path
         d="m -2572.9163,6941.1748 c -15.25,-39.43 -11.24,-85.11 -9.67,-126.95 1.89,-50.21 5.78,-99.19 22.93,-146.44 14.34,-39.53 70.2,-45.2 82.35,0 11.62,43.25 9.71,82.78 4.58,126.98 -5.65,48.63 -2.48,98.53 -11.23,146.41 -9.5,52 -73.78,39.24 -88.96,0 v 0"
         style="fill:#1d1b19;fill-opacity:1;fill-rule:nonzero;stroke:none"
         id="path162-3" /><path
         d="m -2798.2463,6948.8748 c -10.76,-73.39 -36.39,-156.83 -10.34,-229.2 13.86,-38.51 75.6,-48.61 84.76,0 13.36,70.87 3.95,148.29 -5.05,219.41 -4.68,36.99 -62.76,54.79 -69.37,9.79 v 0"
         style="fill:#1d1b19;fill-opacity:1;fill-rule:nonzero;stroke:none"
         id="path164-7" /><path
         d="m -2994.2063,6803.6048 c 10.53,-34.43 4.38,-79.23 26.6,-108.74 3.8,-5.03 13.54,-5.04 17.33,0 24.46,32.53 16.47,86.45 6.11,123.13 -9.45,33.45 -60.22,18.88 -50.04,-14.39 v 0"
         style="fill:#1d1b19;fill-opacity:1;fill-rule:nonzero;stroke:none"
         id="path166-5" /><path
         d="m -1549.3463,7229.1448 c -154.63,-138.05 -85.92,-401.12 76.92,-499.04 187.48,-112.73 425.39,105.59 398.79,313.47 -20.11,157.08 -143.1,269.66 -294.85,256.95 -78.15,-6.55 -137.85,-32.97 -180.86,-71.38"
         style="fill:#ffffff;fill-opacity:1;fill-rule:nonzero;stroke:none"
         id="path168-9" /><path
         d="m -1308.4263,6847.9448 c 143.56,-50.14 260.21,117.39 170.77,246.7 -79.55,115.01 -265.72,68.75 -269.14,-79.83 -1.71,-74.58 26.67,-141.83 98.37,-166.87"
         style="fill:#100f0d;fill-opacity:1;fill-rule:nonzero;stroke:none"
         id="path170-2" /><path
         d="m -1216.0863,6945.2548 c 30.67,-41.78 100.3,-16.73 97.93,37.59 -1.9,43.48 -41.87,77.59 -76.75,52.63 -29.05,-20.78 -45.01,-57.73 -21.18,-90.22"
         style="fill:#ffffff;fill-opacity:1;fill-rule:nonzero;stroke:none"
         id="path172-2" /><path
         d="m 9614.69,2004.25 c -147.11,-131.35 -81.75,-381.62 73.18,-474.78 178.37,-107.25 404.73,100.47 379.43,298.23 -19.2,149.44 -136.17,256.56 -280.54,244.46 -74.36,-6.23 -131.15,-31.37 -172.07,-67.91"
         style="fill:#ffffff;fill-opacity:1;fill-rule:nonzero;stroke:none"
         id="path174" /><path
         d="m 9843.89,1641.58 c 136.59,-47.7 247.61,111.69 162.51,234.72 -75.72,109.42 -252.84,65.4 -256.09,-75.95 -1.63,-70.96 25.37,-134.95 93.58,-158.77"
         style="fill:#100f0d;fill-opacity:1;fill-rule:nonzero;stroke:none"
         id="path176" /><path
         d="m 9931.76,1734.16 c 29.17,-39.75 95.44,-15.91 93.14,35.77 -1.8,41.36 -39.81,73.81 -73,50.07 -27.64,-19.77 -42.82,-54.93 -20.14,-85.84"
         style="fill:#ffffff;fill-opacity:1;fill-rule:nonzero;stroke:none"
         id="path178" /><path
         d="m 5896.52,5180.99 c -172.73,-154.22 -95.99,-448.09 85.94,-557.48 209.42,-125.93 475.2,117.96 445.48,350.18 -22.46,175.46 -159.86,301.24 -329.38,287.03 -87.3,-7.31 -153.98,-36.83 -202.04,-79.73"
         style="fill:#ffffff;fill-opacity:1;fill-rule:nonzero;stroke:none"
         id="path180" /><path
         d="m 6165.65,4755.15 c 160.37,-56.01 290.69,131.13 190.77,275.6 -88.86,128.47 -296.83,76.79 -300.65,-89.18 -1.92,-83.32 29.79,-158.45 109.88,-186.42"
         style="fill:#100f0d;fill-opacity:1;fill-rule:nonzero;stroke:none"
         id="path182" /><path
         d="m 6268.82,4863.86 c 34.24,-46.68 112.04,-18.69 109.38,41.99 -2.12,48.57 -46.77,86.67 -85.73,58.8 -32.45,-23.22 -50.28,-64.5 -23.65,-100.79"
         style="fill:#ffffff;fill-opacity:1;fill-rule:nonzero;stroke:none"
         id="path184" /><path
         d="m 2222.57,5082.21 c -172.73,-154.23 -95.98,-448.08 85.94,-557.48 209.43,-125.93 475.2,117.96 445.48,350.18 -22.46,175.47 -159.85,301.24 -329.38,287.04 -87.3,-7.32 -153.98,-36.84 -202.04,-79.74"
         style="fill:#ffffff;fill-opacity:1;fill-rule:nonzero;stroke:none"
         id="path186" /><path
         d="m 2491.71,4656.37 c 160.37,-56 290.68,131.13 190.77,275.6 -88.87,128.47 -296.84,76.8 -300.66,-89.18 -1.91,-83.32 29.79,-158.45 109.89,-186.42"
         style="fill:#100f0d;fill-opacity:1;fill-rule:nonzero;stroke:none"
         id="path188" /><path
         d="m 2594.87,4765.08 c 34.25,-46.68 112.04,-18.69 109.39,41.99 -2.12,48.58 -46.77,86.67 -85.74,58.79 -32.45,-23.21 -50.28,-64.49 -23.65,-100.78"
         style="fill:#ffffff;fill-opacity:1;fill-rule:nonzero;stroke:none"
         id="path190" /><path
         d="m 2291.58,1892.51 c -154.62,-138.05 -85.92,-401.11 76.93,-499.04 187.47,-112.73 425.39,105.6 398.78,313.47 -20.1,157.08 -143.09,269.67 -294.85,256.95 -78.15,-6.55 -137.84,-32.98 -180.86,-71.38"
         style="fill:#ffffff;fill-opacity:1;fill-rule:nonzero;stroke:none"
         id="path192" /><path
         d="m 2532.5,1511.31 c 143.56,-50.13 260.21,117.39 170.78,246.71 -79.56,115 -265.73,68.75 -269.15,-79.83 -1.71,-74.59 26.67,-141.84 98.37,-166.88"
         style="fill:#100f0d;fill-opacity:1;fill-rule:nonzero;stroke:none"
         id="path194" /><path
         d="m 2624.85,1608.63 c 30.66,-41.79 100.29,-16.74 97.92,37.58 -1.9,43.48 -41.86,77.59 -76.75,52.64 -29.05,-20.79 -45.01,-57.74 -21.17,-90.22"
         style="fill:#ffffff;fill-opacity:1;fill-rule:nonzero;stroke:none"
         id="path196" /><path
         d="m 4534.54,1099.88 c -56.71,0 -56.8,-88.13 0,-88.13 56.7,0 56.8,88.13 0,88.13"
         style="fill:#100f0d;fill-opacity:1;fill-rule:nonzero;stroke:none"
         id="path198" /><path
         d="m 4861.2,1156.97 c -61.52,0 -61.63,-95.63 0,-95.63 61.53,0 61.63,95.63 0,95.63"
         style="fill:#100f0d;fill-opacity:1;fill-rule:nonzero;stroke:none"
         id="path200" /><path
         d="m 6525.57,8716.93 c -114.34,259.29 -327.71,449.34 -546.48,611.34 -182.08,134.84 -362.47,220.8 -584.33,254.57 -130.54,19.87 -261.93,33.8 -393.64,41.71 -114.69,6.9 -233.28,8.61 -340.13,-35.38 -106.85,-44 -199.97,-144.31 -205.25,-263.99 -3.62,-81.87 32.75,-158.93 58.62,-236.31 52.54,-157.14 63.11,-329.28 30.23,-492.13 l 1980.98,120.19"
         style="fill:#a67dc2;fill-opacity:1;fill-rule:nonzero;stroke:none"
         id="path202" /><path
         d="m 6126.69,7799.74 c 47.28,-43.7 98.47,-96.2 97.18,-162.08 -0.65,-33.38 -15.24,-64.75 -32.27,-93.03 -31.08,-51.61 -71.39,-97.14 -118.19,-133.63 -66.15,-51.55 -143.72,-84.28 -220.32,-116.45 -338.69,-142.23 -756.11,-442.48 -1105.01,-176.49 -137.43,104.78 -225.52,276.81 -232.59,454.2 -2.99,75.24 7.75,150.25 18.46,224.72 21.63,150.3 43.25,300.61 64.88,450.92 l 1527.86,-448.16"
         style="fill:#a67dc2;fill-opacity:1;fill-rule:nonzero;stroke:none"
         id="path204" /><path
         d="m 6898.2,8146.06 c -13.2,-59.2 -188.6,-58.69 -188.6,-36.5 -5.1,-46.6 25.3,-94.49 68.7,-111.2 26.2,-10 62.2,-16.1 66.1,-44.8 2,-14.69 -6.4,-28.49 -14.7,-40.49 -93,-134.71 -214.4,-242.41 -348.1,-333.4 -90.1,-61.31 -185.7,-114.91 -282.2,-163.7 -7.1,-3.71 -14.1,-7.3 -21.2,-10.81 -21.7,-10.8 -43.4,-21.49 -65.3,-32 -72.6,-34.8 -146.2,-67.5 -221,-96.7 -35.1,-13.8 -70.3,-26.7 -105.9,-38.7 -58.5,-20 -117.7,-37.39 -177.7,-51.9 -4.9,-1.3 -9.7,-2.5 -14.6,-3.6 -19.4,-4.5 -38.9,-8.79 -58.5,-12.5 -66.8,-13.19 -134.7,-22 -202.5,-23.9 -27.2,-0.79 -54.4,-0.49 -81.5,1 -43.4,2.5 -86.5,8.21 -129.1,17.7 -9.3,2.1 -18.7,4.4 -28,6.9 -19.3,5.11 -38.3,11.11 -57,17.9 -63.4,23.1 -123.5,55.51 -178.6,95.6 -22.8,16.61 -44.7,34.51 -65.6,53.6 -105,95.6 -185.2,221 -225.1,360.4 -42,146.81 -9.9,501.41 -253.5,464.2 -80.6,-12.3 -157.8,-78.4 -234.4,-50.29 -51.8,18.9 -79.7,75.09 -93.2,128.59 -19.5,77.21 -19.3,157.81 -19.1,237.5 0.1,28.3 0.2,56.61 0.2,84.91 0.2,40.49 0.3,80.9 0.4,121.29 0.5,185.8 243.5,21.3 311.7,-15.89 214.1,-116.61 279.5,256.3 344.6,381.19 29.4,56.4 63.7,109.61 106.2,157 31.5,35.2 66.9,66.1 105,92.61 17,12.1 34.6,23.2 52.8,33.39 37.7,21.5 77.4,39.2 118.5,53.51 4.5,1.59 9,3.1 13.5,4.6 22.1,7.1 44.6,13.3 67.4,18.5 47,10.79 95,17.39 143,19.89 2.3,0.11 4.7,0.3 7,0.3 14.4,0.6 28.7,0.91 43,0.91 21.2,-0.11 42.4,-0.8 63.5,-2.3 76.5,-5.1 152.5,-18.8 227.3,-38.5 17.5,-4.51 35,-9.51 52.4,-14.71 1.6,-0.5 3.1,-0.89 4.7,-1.39 49.4,-14.8 98.2,-32.1 146.2,-50.81 15.9,-6.19 31.7,-12.6 47.5,-19.19 25.8,-10.71 51.4,-22 76.8,-33.81 17.4,-8.09 34.7,-16.39 51.8,-25 56.1,-27.89 110.9,-58.6 163.7,-92.5 18.5,-11.69 36.8,-23.89 54.8,-36.5 7,-4.89 13.9,-9.8 20.8,-14.8 56.1,-40.6 109.4,-85 159.2,-133.59 6.4,-6.21 12.5,-12.5 18.5,-18.8 95.1,-101.31 154.7,-230.4 234,-344.51 71.3,-102.7 116.1,-217.7 191,-317.5 25.7,-34.3 114.5,-98.3 105.1,-141.2"
         style="fill:#5e3b78;fill-opacity:1;fill-rule:nonzero;stroke:none"
         id="path206" /><path
         d="m 4838.5,7864.36 c -3,-187.9 8.8,-375.69 24,-562.79 0.5,-6.61 -1,-12.1 -4,-16.61 -22.8,16.61 -44.7,34.51 -65.6,53.6 -63.8,347.9 -25.6,714.01 2.5,1063.81 24.1,299.8 42.9,597.89 40.3,897.7 17,12.1 34.6,23.2 52.8,33.39 30.4,-302.19 1.7,-610.8 -20.3,-912.2 -13.5,-185.4 -26.7,-371 -29.7,-556.9"
         style="fill:#3b234f;fill-opacity:1;fill-rule:nonzero;stroke:none"
         id="path208" /><path
         d="m 5124.2,7691.46 c -2.9,-174.89 5.3,-351.7 -2.1,-526.9 -9.3,2.1 -18.7,4.4 -28,6.9 -19.3,5.11 -38.3,11.11 -57,17.9 -13.5,137.1 -10,276.61 -8.2,413.51 4.4,331.6 19.2,662.79 19.8,994.39 0.3,163.8 -6,327.1 -16.3,490.5 -6.4,101.51 -11.9,202.61 -11.9,303.81 22.1,7.1 44.6,13.3 67.4,18.5 5.9,-153.21 22.8,-306.2 34,-459.01 15.4,-209.4 19.3,-419.49 16.2,-629.4 -3.1,-210.09 -10.5,-420.09 -13.9,-630.2"
         style="fill:#3b234f;fill-opacity:1;fill-rule:nonzero;stroke:none"
         id="path210" /><path
         d="m 5386,8239.87 c -1.4,-197.41 -8.4,-394.8 -18,-592 -4.7,-98.71 -9.2,-197.41 -17.3,-295.9 -5.6,-68.21 -8.7,-137.81 -18,-206.11 -27.2,-0.79 -54.4,-0.49 -81.5,1 -1,74.91 5.8,150.51 8.9,224.8 4.2,98.71 11.7,197.3 17.1,295.91 10.9,197.19 18.6,394.6 21.7,592.1 3.2,197.19 1.8,394.4 -8,591.39 -9.7,192.9 -38.1,387.61 -10,580.11 21.2,-0.11 42.4,-0.8 63.5,-2.3 0.3,-2.01 0.3,-4 0,-6.21 -24,-196.2 12.8,-395.39 25.3,-591.29 12.5,-196.81 17.7,-394.31 16.3,-591.5"
         style="fill:#3b234f;fill-opacity:1;fill-rule:nonzero;stroke:none"
         id="path212" /><path
         d="m 5634.2,8312.46 c -1.6,-205 -3.9,-409.89 -7.2,-614.89 -1.6,-99.1 -1.7,-198.5 -6.5,-297.5 -3.4,-70.6 -4.4,-143.1 -12.2,-214.21 -4.9,-1.3 -9.7,-2.5 -14.6,-3.6 -19.4,-4.5 -38.9,-8.79 -58.5,-12.5 -6.2,76.41 -3.8,154.2 -4.2,230.31 -0.5,99.2 3.2,198.4 5.2,297.5 4.1,205 7.9,409.89 11.1,614.89 3.2,205 5.5,409.91 8.7,614.91 2.4,154.2 4.2,309 15.7,463 17.5,-4.51 35,-9.51 52.4,-14.71 10.3,-149.09 11.2,-299.09 11.9,-448.29 1.1,-205 -0.2,-409.91 -1.8,-614.91"
         style="fill:#3b234f;fill-opacity:1;fill-rule:nonzero;stroke:none"
         id="path214" /><path
         d="m 5908.8,7857.06 c -7,-166.09 -13.5,-332.19 -16.2,-498.39 -0.4,-27.41 -0.6,-54.8 -0.7,-82.21 -35.1,-13.8 -70.3,-26.7 -105.9,-38.7 -0.1,56.6 1,113.21 2,169.7 11.7,633 80,1264 34.5,1896.81 25.8,-10.71 51.4,-22 76.8,-33.81 16.7,-138.69 26,-278 30.8,-417.8 11.3,-332 -7.3,-663.9 -21.3,-995.6"
         style="fill:#3b234f;fill-opacity:1;fill-rule:nonzero;stroke:none"
         id="path216" /><path
         d="m 6220.9,8187.17 c -7.2,-170.4 -14.7,-340.8 -19.9,-511.31 -2.6,-86.19 -1.2,-173.1 -1.6,-259.89 -7.1,-3.71 -14.1,-7.3 -21.2,-10.81 -21.7,-10.8 -43.4,-21.49 -65.3,-32 -7.2,97.7 -5.1,196.71 -4.3,293.1 1.2,167.3 12,334.6 19.4,501.61 14.7,327.9 26.8,658.4 -13.2,985.09 18.5,-11.69 36.8,-23.89 54.8,-36.5 7,-4.89 13.9,-9.8 20.8,-14.8 46,-302.7 43.5,-608.7 30.5,-914.49"
         style="fill:#3b234f;fill-opacity:1;fill-rule:nonzero;stroke:none"
         id="path218" /><path
         d="m 5566.28,8334.53 c -18.89,19.04 -40.34,39.57 -66.6,39.89 -28.08,0.34 -51.6,-23.27 -64.46,-49.3 -22.52,-45.56 -21.22,-103 3.33,-147.41 24.54,-44.4 71.56,-74.35 120.66,-76.86 -11.27,-30.5 -53.87,-32.14 -81.41,-16.52 -27.55,15.62 -48.87,42.3 -78.11,54.11 -50.05,-24.77 -65.57,-97.13 -43.13,-149.96 22.45,-52.83 72.82,-87.43 124.97,-106.96 105.53,-39.51 227.93,-26.46 323.62,34.49 96.94,61.75 158.7,167.01 177.89,282.55 -164.72,-78.78 -292.69,10.9 -416.76,135.97"
         style="fill:#a67dc2;fill-opacity:1;fill-rule:nonzero;stroke:none"
         id="path220" /><path
         d="m 6178.57,8491.78 c -154.62,-138.06 -85.92,-401.12 76.94,-499.04 187.47,-112.73 425.39,105.59 398.77,313.47 -20.1,157.08 -143.08,269.66 -294.84,256.95 -78.15,-6.55 -137.84,-32.98 -180.87,-71.38"
         style="fill:#ffffff;fill-opacity:1;fill-rule:nonzero;stroke:none"
         id="path222" /><path
         d="m 6419.5,8110.58 c 143.56,-50.14 260.21,117.39 170.77,246.71 -79.55,115 -265.72,68.74 -269.14,-79.84 -1.71,-74.58 26.67,-141.83 98.37,-166.87"
         style="fill:#100f0d;fill-opacity:1;fill-rule:nonzero;stroke:none"
         id="path224" /><path
         d="m 6511.84,8207.89 c 30.67,-41.78 100.3,-16.73 97.92,37.59 -1.89,43.48 -41.85,77.59 -76.74,52.63 -29.05,-20.78 -45.01,-57.73 -21.18,-90.22"
         style="fill:#ffffff;fill-opacity:1;fill-rule:nonzero;stroke:none"
         id="path226" /><path
         d="m 9454.49,7691.32 c -208.46,96.4 -443.2,55.72 -655.9,130.38 -84.49,29.66 -150.31,85.27 -233.74,117.4 -103.03,39.66 -196.6,80.92 -280.94,154.66 8.47,-162.56 33.7,-377.53 -57.65,-521.9 178.44,-43.8 327.95,-189.81 375.96,-367.17 168.23,150.52 451.17,149.07 617.85,-3.15 45.68,106.71 108.79,205.85 185.63,292.82 70.72,80.05 186.85,133.11 48.79,196.96"
         style="fill:#2c3a92;fill-opacity:1;fill-rule:nonzero;stroke:none"
         id="path228" /><path
         d="m 9529.66,8704.3 c -40.61,-46.24 -104.91,-61.97 -164.98,-75.29 -113.66,-25.2 -227.31,-50.4 -340.96,-75.6 -159.82,-35.44 -319.76,-70.9 -481.51,-96.04 -72.2,-11.23 -246.14,-49.79 -310.01,0.63 -42.51,33.55 -31.3,97.29 -36.26,151.54 -5.05,55.46 -8.02,288.61 -91.45,296.25 133.61,-12.21 251.28,38.42 353.09,120.76 34.62,28.01 191.46,243.45 112.11,274.53 239.93,-93.97 540.91,11.45 669.78,234.58 113.59,-234.23 327.74,-417.55 576.69,-493.68 -59.03,-138.34 -187.27,-224.67 -286.5,-337.68"
         style="fill:#2c3a92;fill-opacity:1;fill-rule:nonzero;stroke:none"
         id="path230" /><path
         d="m 10655.2,8015 c -15.8,-18.52 -32.6,-36.68 -50,-54.44 -74.7,-76.39 -161.5,-146.11 -241.6,-212.52 -5.3,-4.35 -10.5,-8.67 -15.8,-12.98 -154.5,-125.79 -326.8,-231.92 -518.4,-281.4 -199.38,-51.45 -409.09,-39.36 -611.96,-6.11 -310.09,50.88 -628.15,160.68 -837.67,404.45 -49.55,57.72 -92.57,122.33 -150.06,171.43 -62.43,53.28 -138.52,104.79 -223.91,100.32 -44.02,-281.09 -291.53,-517.45 -574.36,-548.46 130.01,158.83 192.65,366.47 195.44,571.7 2.81,205.23 -51.26,408.33 -134.19,596.08 177.18,-36.41 321,-165.1 436.81,-304.04 11.42,-13.7 23.75,-28.29 40.92,-33.12 14.41,-4.07 29.78,-0.48 44.17,3.69 200.64,58.14 351.86,201.44 506.82,332.57 190.16,160.84 410.13,287.08 648.31,346.31 238.15,59.22 495.12,48.77 720.64,-50.65 10.3,-4.55 20.52,-9.26 30.65,-14.21 161.99,-78.23 303.69,-202.11 405.59,-355.08 4.2,-6.39 8.4,-12.86 12.5,-19.32 68.1,-106.96 117.6,-225.02 169.4,-341.12 24.9,-55.87 46.9,-123.64 80.8,-173.97 16.3,-24.3 78.9,-49.93 83.2,-78.34 2.4,-15.21 -7.4,-29.3 -17.3,-40.79"
         style="fill:#54a8e1;fill-opacity:1;fill-rule:nonzero;stroke:none"
         id="path232" /><path
         d="m 9447.84,8530.79 c -11.83,18.63 -23.92,38.1 -42.12,49.88 -18.2,11.78 -44.5,13.31 -59.31,-2.83 -7.86,-8.57 -11.24,-20.49 -14.19,-31.95 -8.17,-31.85 -14.96,-66.01 -5.09,-97.35 5.4,-17.16 15.48,-32.28 22.47,-48.81 30.27,-71.67 -1.37,-153.15 -15.72,-230.02 -7.11,-38.17 -9.84,-77.23 -8.1,-116.07 1.42,-31.81 11.83,-70.64 41.78,-76.93 47.12,-9.89 125.18,69.91 162.97,94.61 54.15,35.18 100.75,77.76 149.07,120.94 6.63,5.93 13.77,12.86 14.39,21.95 0.6,8.57 -4.82,16.18 -9.96,22.9 -75.49,98.67 -169.37,188.42 -236.19,293.68"
         style="fill:#fcc91c;fill-opacity:1;fill-rule:nonzero;stroke:none"
         id="path234" /><path
         d="m 9913.95,8596.53 c -141.1,-125.98 -78.41,-366.03 70.21,-455.39 171.04,-102.87 388.14,96.36 363.94,286.05 -18.4,143.34 -130.6,246.08 -269.1,234.47 -71.3,-5.97 -125.79,-30.08 -165.05,-65.13"
         style="fill:#ffffff;fill-opacity:1;fill-rule:nonzero;stroke:none"
         id="path236" /><path
         d="m 10133.8,8248.67 c 131,-45.75 237.5,107.12 155.8,225.13 -72.6,104.94 -242.4,62.74 -245.6,-72.85 -1.5,-68.06 24.4,-129.43 89.8,-152.28"
         style="fill:#100f0d;fill-opacity:1;fill-rule:nonzero;stroke:none"
         id="path238" /><path
         d="m 10218.1,8337.47 c 28,-38.13 91.5,-15.26 89.3,34.31 -1.7,39.67 -38.2,70.8 -70,48.02 -26.5,-18.96 -41.1,-52.68 -19.3,-82.33"
         style="fill:#ffffff;fill-opacity:1;fill-rule:nonzero;stroke:none"
         id="path240" /><path
         d="m 9807.67,8855.31 c -68.5,25.15 -142.95,19.06 -214.41,12.37 -72.62,-6.8 -144.85,-18.34 -216.04,-34.18 -139.37,-31.02 -274.45,-78.43 -405.55,-134.61 -275.54,-118.05 -531.21,-277.82 -783.94,-437.31 -20.35,-12.85 -2.67,-41.55 18.57,-31.77 262.53,120.85 510.59,270.25 776.02,385.33 129.35,56.07 263.4,102.58 400.99,133.75 71.88,16.29 144.71,28.38 218.2,34.42 68.94,5.67 138.77,2.05 206.16,19.2 27.93,7.11 23.99,43.99 0,52.8"
         style="fill:#f9e22b;fill-opacity:1;fill-rule:nonzero;stroke:none"
         id="path242" /><path
         d="m 9514.57,7715.32 c -44.69,19.01 -95.42,24.7 -142.73,35 -51.32,11.17 -103.42,18.53 -154.91,28.9 -103.08,20.75 -205.3,47.1 -305.26,79.77 -201.54,65.86 -394.32,159.56 -580.32,260.67 -18.29,9.95 -41.03,-15.96 -23.32,-30.23 169.72,-136.77 361.02,-235.05 565.61,-309.12 101.48,-36.74 205.22,-66.9 310.89,-88.99 53.03,-11.09 106.07,-20.5 160.01,-25.78 52.04,-5.1 112.69,-10.58 163.8,2.09 20.04,4.97 27.46,38.65 6.23,47.69"
         style="fill:#f9e22b;fill-opacity:1;fill-rule:nonzero;stroke:none"
         id="path244" /><path
         style="fill:none;fill-rule:evenodd;stroke:#000000;stroke-width:75.00000188;stroke-linecap:butt;stroke-linejoin:miter;stroke-opacity:1;stroke-miterlimit:4;stroke-dasharray:none"
         d="M 3.7895828,2990.6565 V 2303.435"
         id="path1152" /><path
         style="fill:none;fill-rule:evenodd;stroke:#000000;stroke-width:75.00000188;stroke-linecap:butt;stroke-linejoin:miter;stroke-opacity:1;stroke-miterlimit:4;stroke-dasharray:none"
         d="M 3289.6174,2976.2955 V 2289.074"
         id="path1152-3" /><path
         style="fill:none;fill-rule:evenodd;stroke:#000000;stroke-width:75.00000188;stroke-linecap:butt;stroke-linejoin:miter;stroke-opacity:1;stroke-miterlimit:4;stroke-dasharray:none"
         d="M 20.942761,2650.468 H 3287.732"
         id="path1154" /><text
         xml:space="preserve"
         style="font-size:434.178px;line-height:200%;font-family:sans-serif;-inkscape-font-specification:sans-serif;letter-spacing:0px;word-spacing:0px;fill:#000000;stroke:none;stroke-width:32.5634px;stroke-linecap:butt;stroke-linejoin:miter;stroke-opacity:1;fill-opacity:1"
         x="1194.5721"
         y="-2731.8838"
         id="text2514"
         transform="scale(1,-1)"><tspan
           sodipodi:role="line"
           id="tspan2512"
           style="stroke-width:32.5634px;stroke:none;fill:#000000;fill-opacity:1"
           x="1194.5721"
           y="-2731.8838">150</tspan></text><path
         style="fill:none;fill-rule:evenodd;stroke:#000000;stroke-width:75;stroke-linecap:butt;stroke-linejoin:miter;stroke-miterlimit:4;stroke-dasharray:none;stroke-opacity:1"
         d="M 316.59742,10016.85 V 9329.6288"
         id="path1152-6" /><path
         style="fill:none;fill-rule:evenodd;stroke:#000000;stroke-width:75;stroke-linecap:butt;stroke-linejoin:miter;stroke-miterlimit:4;stroke-dasharray:none;stroke-opacity:1"
         d="M 3602.4252,10002.489 V 9315.2678"
         id="path1152-3-7" /><path
         style="fill:none;fill-rule:evenodd;stroke:#000000;stroke-width:75;stroke-linecap:butt;stroke-linejoin:miter;stroke-miterlimit:4;stroke-dasharray:none;stroke-opacity:1"
         d="M 333.7506,9676.6613 H 3600.5398"
         id="path1154-5" /><text
         xml:space="preserve"
         style="font-size:434.178px;line-height:200%;font-family:sans-serif;-inkscape-font-specification:sans-serif;letter-spacing:0px;word-spacing:0px;fill:#000000;fill-opacity:1;stroke:none;stroke-width:32.5634px;stroke-linecap:butt;stroke-linejoin:miter;stroke-opacity:1"
         x="1507.38"
         y="-9758.0791"
         id="text2514-3"
         transform="scale(1,-1)"><tspan
           sodipodi:role="line"
           id="tspan2512-5"
           style="fill:#000000;fill-opacity:1;stroke:none;stroke-width:32.5634px"
           x="1507.38"
           y="-9758.0791">175</tspan></text></g></g></svg>
